G04*
G04 #@! TF.GenerationSoftware,Altium Limited,Altium Designer,21.2.1 (34)*
G04*
G04 Layer_Physical_Order=1*
G04 Layer_Color=255*
%FSLAX44Y44*%
%MOMM*%
G71*
G04*
G04 #@! TF.SameCoordinates,603A0A18-1311-4174-A4CB-90F12E54E7A9*
G04*
G04*
G04 #@! TF.FilePolarity,Positive*
G04*
G01*
G75*
%ADD11C,0.2540*%
%ADD15C,0.3000*%
%ADD16C,1.0000*%
%ADD26R,0.5000X2.0000*%
%ADD33R,1.0000X1.0000*%
G04:AMPARAMS|DCode=34|XSize=1.5mm|YSize=1mm|CornerRadius=0.25mm|HoleSize=0mm|Usage=FLASHONLY|Rotation=180.000|XOffset=0mm|YOffset=0mm|HoleType=Round|Shape=RoundedRectangle|*
%AMROUNDEDRECTD34*
21,1,1.5000,0.5000,0,0,180.0*
21,1,1.0000,1.0000,0,0,180.0*
1,1,0.5000,-0.5000,0.2500*
1,1,0.5000,0.5000,0.2500*
1,1,0.5000,0.5000,-0.2500*
1,1,0.5000,-0.5000,-0.2500*
%
%ADD34ROUNDEDRECTD34*%
%ADD35R,1.9500X1.0500*%
%ADD36R,1.1000X0.6500*%
%ADD37R,1.1500X0.6000*%
%ADD38R,0.7000X0.9000*%
%ADD39R,0.9000X0.7000*%
%ADD40R,1.2000X1.4000*%
%ADD41R,1.4000X1.2000*%
%ADD42C,0.6000*%
%ADD43C,0.4000*%
%ADD44C,0.5000*%
%ADD45R,0.5000X1.0000*%
%ADD46R,1.5000X1.5000*%
%ADD47C,1.5000*%
%ADD48R,1.8000X1.8000*%
%ADD49C,1.8000*%
%ADD50R,1.5000X1.5000*%
%ADD51C,1.0000*%
D11*
X1913011Y1480000D02*
G03*
X1937978Y1504966I0J24966D01*
G01*
X1938040Y2158600D02*
G03*
X1906640Y2190000I-31400J0D01*
G01*
X1937978Y1572309D02*
G03*
X1907515Y1602771I-30463J0D01*
G01*
X1884624Y2114464D02*
G03*
X1858160Y2088000I0J-26464D01*
G01*
X1858166Y1615620D02*
G03*
X1870866Y1602920I12700J0D01*
G01*
X1906640Y2114464D02*
G03*
X1938040Y2145864I0J31400D01*
G01*
X650000Y1506454D02*
G03*
X676454Y1480000I26455J0D01*
G01*
X675392Y2190000D02*
G03*
X650000Y2164608I0J-25392D01*
G01*
X834452Y2124645D02*
X1619451Y2124645D01*
X834452Y1894645D02*
X1619451Y1894645D01*
Y2124645D01*
X834452Y1894645D02*
Y2124645D01*
X676454Y1480000D02*
X1913011D01*
X1938040Y2145864D02*
Y2158600D01*
X675392Y2190000D02*
X1906640D01*
X1903863Y1602920D02*
X1907515D01*
X1884624Y2114464D02*
X1906640D01*
X1858000Y2088000D02*
X1858000Y1615620D01*
X1937978Y1504966D02*
Y1572309D01*
X1870866Y1602920D02*
X1903863D01*
X650000Y1506454D02*
X650000Y2164608D01*
D15*
X1917878Y2147934D02*
G03*
X1917878Y2147934I-15000J0D01*
G01*
Y1567934D02*
G03*
X1917878Y1567934I-15000J0D01*
G01*
X702878D02*
G03*
X702878Y1567934I-15000J0D01*
G01*
Y2147934D02*
G03*
X702878Y2147934I-15000J0D01*
G01*
D16*
X1652019Y1822903D02*
G03*
X1652019Y1813097I981J-4903D01*
G01*
X1666981D02*
G03*
X1666981Y1822903I-981J4903D01*
G01*
D26*
X1654500Y1818000D02*
D03*
X1664500Y1818000D02*
D03*
D33*
X1651000Y1818000D02*
D03*
X1668000D02*
D03*
D34*
X1850500Y2155039D02*
D03*
X1771500D02*
D03*
D35*
X1023000Y1648000D02*
D03*
Y1628000D02*
D03*
Y1608000D02*
D03*
Y1588000D02*
D03*
Y1568000D02*
D03*
Y1548000D02*
D03*
Y1528000D02*
D03*
Y1508000D02*
D03*
X1171000D02*
D03*
Y1528000D02*
D03*
Y1548000D02*
D03*
Y1568000D02*
D03*
Y1588000D02*
D03*
Y1608000D02*
D03*
Y1628000D02*
D03*
Y1648000D02*
D03*
D36*
X1572208Y1733054D02*
D03*
Y1742554D02*
D03*
Y1752054D02*
D03*
X1548208D02*
D03*
Y1733054D02*
D03*
D37*
X1456750Y1610500D02*
D03*
Y1591500D02*
D03*
X1479250Y1601000D02*
D03*
D38*
X1665500Y1790000D02*
D03*
X1650500D02*
D03*
X1470500Y1544692D02*
D03*
X1455500D02*
D03*
X1665500Y1765248D02*
D03*
X1650500D02*
D03*
D39*
X1280700Y1698679D02*
D03*
Y1713679D02*
D03*
X1280700Y1764500D02*
D03*
Y1749500D02*
D03*
D40*
X1551208Y1782954D02*
D03*
X1569208D02*
D03*
D41*
X1520691Y1756248D02*
D03*
Y1774248D02*
D03*
D42*
X882400Y1736587D02*
X914000Y1704987D01*
Y1513250D02*
X935250Y1492000D01*
X914000Y1513250D02*
Y1704987D01*
X692450Y1666821D02*
Y1736587D01*
X691684Y1666055D02*
X692450Y1666821D01*
X657437Y1770834D02*
Y2076842D01*
X691684Y1736587D02*
Y1736587D01*
X882400D01*
X657437Y1770834D02*
X691684Y1736587D01*
X743241Y2162645D02*
X1292451D01*
X657437Y2076842D02*
X743241Y2162645D01*
D43*
X1050000Y1643000D02*
Y1796895D01*
X1122790Y1869685D01*
X1090000Y1773000D02*
X1153750Y1836750D01*
X993460Y1830000D02*
X994000Y1829460D01*
X791400Y1830000D02*
X993460D01*
X1090000Y1622600D02*
Y1773000D01*
X1153750Y1836750D02*
X1572250D01*
X755400Y1794000D02*
X791400Y1830000D01*
X990000Y1648000D02*
X1023000D01*
X1013000Y1873000D02*
X1028000Y1858000D01*
Y1691000D02*
Y1858000D01*
X831803Y1873000D02*
X1013000D01*
X817461Y1887341D02*
X831803Y1873000D01*
X817461Y1887341D02*
Y2123461D01*
X1412406Y2181000D02*
X1707000D01*
X1732961Y2155039D02*
X1763539D01*
X1707000Y2181000D02*
X1732961Y2155039D01*
X1332600Y1705279D02*
X1375000Y1747679D01*
X1332600Y1548000D02*
Y1705279D01*
X1375000Y1747679D02*
Y1800000D01*
Y1812000D01*
X1369000Y1818000D02*
X1375000Y1812000D01*
X1349600Y1741506D02*
Y1800000D01*
X1308646Y1749500D02*
X1336300Y1777154D01*
Y1811300D01*
X1343000Y1818000D01*
X1167500Y1588000D02*
X1169250Y1589750D01*
X1636012Y1818000D02*
Y1838011D01*
Y1790000D02*
Y1818000D01*
X1648599D02*
X1651000Y1820401D01*
X1648000Y1818000D02*
X1648599D01*
X1636012D02*
X1648000D01*
X1666319Y1815819D02*
X1668000D01*
X1665500Y1790000D02*
Y1815000D01*
X1666319Y1815819D01*
X1636012Y1772989D02*
Y1790000D01*
X1650091Y1765657D02*
X1650500Y1765248D01*
X1636012Y1772989D02*
X1643343Y1765657D01*
X1650091D01*
X1393830Y2137467D02*
X1594612D01*
X1686360Y1737097D02*
Y1790000D01*
X1665500D02*
X1686360D01*
Y1737097D02*
X1721657Y1701800D01*
X1636012Y1838011D02*
X1637000Y1839000D01*
X1307200Y1534791D02*
X1315775D01*
X1323400Y1514000D02*
Y1527166D01*
X1315775Y1534791D02*
X1323400Y1527166D01*
X1307200Y1534791D02*
Y1699106D01*
X1222887Y1518637D02*
X1239041Y1534791D01*
X1307200D01*
Y1699106D02*
X1349600Y1741506D01*
X1332600Y1548000D02*
X1348800Y1531800D01*
Y1514000D02*
Y1531800D01*
X1272600Y1489750D02*
Y1514000D01*
X1434000Y1534942D02*
X1439942Y1529000D01*
X1434000Y1604246D02*
X1440254Y1610500D01*
X1434000Y1534942D02*
Y1604246D01*
X1440254Y1610500D02*
X1456750D01*
Y1630500D01*
X1458250Y1632000D01*
X1470500Y1532500D02*
Y1544692D01*
X1439942Y1529000D02*
X1467000D01*
X1470500Y1532500D01*
X1533946Y1733054D02*
X1548208D01*
X1529446Y1737554D02*
X1533946Y1733054D01*
X1520691Y1737554D02*
X1529446D01*
X1809000Y1990000D02*
Y2001000D01*
X1781000Y1962000D02*
X1809000Y1990000D01*
X1781000Y1867000D02*
Y1962000D01*
X1732000Y1818000D02*
X1781000Y1867000D01*
X1732000Y1797400D02*
Y1818000D01*
X1571400Y1509000D02*
Y1520600D01*
X1491000Y1601000D02*
X1571400Y1520600D01*
X1479250Y1601000D02*
X1491000D01*
X1313372Y2138372D02*
X1317852Y2142852D01*
X832372Y2138372D02*
X1313372D01*
X817461Y2123461D02*
X832372Y2138372D01*
X1317852Y2142852D02*
Y2162645D01*
X1809000Y1951000D02*
X1824000Y1966000D01*
Y2022000D01*
X1850500Y2048500D01*
Y2155039D01*
X1763539D02*
X1765500Y2157000D01*
X1394052Y2162645D02*
X1412406Y2181000D01*
X1745451Y2049451D02*
X1776000Y2080000D01*
X1745451Y1917943D02*
Y2049451D01*
X1776000Y2080000D02*
X1790000D01*
X1757000Y2042440D02*
X1780560Y2066000D01*
X1757000Y1911000D02*
Y2042440D01*
X1780560Y2066000D02*
X1805000D01*
X1801000Y2091000D02*
Y2097481D01*
X1790000Y2080000D02*
X1801000Y2091000D01*
X1805000Y2066000D02*
X1825000Y2086000D01*
Y2094774D01*
X1797000Y1684000D02*
X1809000D01*
X1764000Y1651000D02*
X1797000Y1684000D01*
X1732000Y1651000D02*
X1764000D01*
X1368651Y2162645D02*
X1393830Y2137467D01*
X1721000Y1651000D02*
X1732000D01*
X1643000Y1729000D02*
X1721000Y1651000D01*
X1588656Y1737444D02*
Y1747748D01*
X1585211Y1734000D02*
X1588656Y1737444D01*
X1573154Y1734000D02*
X1585211D01*
X1263700Y1713679D02*
Y1754948D01*
Y1706110D02*
Y1713679D01*
X1223000D02*
X1263700D01*
X1203500Y1694179D02*
X1223000Y1713679D01*
X1203500Y1588000D02*
Y1694179D01*
X1271131Y1698679D02*
X1280700D01*
X1263700Y1706110D02*
X1271131Y1698679D01*
X1203500Y1588000D02*
X1209000D01*
X1273252Y1764500D02*
X1280700D01*
X1263700Y1754948D02*
X1273252Y1764500D01*
X1280700Y1713679D02*
X1292628D01*
X1307200Y1699106D01*
X1280700Y1749500D02*
X1308646D01*
X1572208Y1733054D02*
X1573154Y1734000D01*
X1572208Y1752054D02*
X1584350D01*
X1775000Y1780000D02*
Y1792000D01*
X1741600Y1746600D02*
X1775000Y1780000D01*
X1732000Y1746600D02*
X1741600D01*
X1580410Y1717352D02*
X1596800D01*
X1572208Y1725554D02*
X1580410Y1717352D01*
X1572208Y1725554D02*
Y1733054D01*
X1343000Y1818000D02*
X1369000D01*
X1721657Y1701800D02*
X1732000D01*
X1775000Y1744800D02*
Y1750000D01*
X1732000Y1701800D02*
X1775000Y1744800D01*
Y1750000D02*
X1809000Y1784000D01*
X1594612Y2137467D02*
Y2137664D01*
X1543557Y1782954D02*
X1551208D01*
X1535604Y1775002D02*
X1543557Y1782954D01*
X1535604Y1757579D02*
Y1775002D01*
Y1757579D02*
X1541129Y1752054D01*
X1605044Y2145189D02*
X1618457D01*
X1598290Y1887750D02*
X1621855D01*
X1646000Y1911895D01*
X1585211Y1874671D02*
X1598290Y1887750D01*
X1646000Y1911895D02*
Y2117645D01*
X1541129Y1752054D02*
X1548208D01*
X1570958Y1750804D02*
X1572208Y1752054D01*
X1520691Y1756248D02*
X1520691Y1756248D01*
Y1737554D02*
Y1756248D01*
X1585211Y1849711D02*
Y1874671D01*
X1572250Y1836750D02*
X1585211Y1849711D01*
X1210250Y1489750D02*
X1256400D01*
X1033460D02*
X1041000Y1497290D01*
X978250Y1489750D02*
X1033460D01*
X933200Y1534800D02*
X978250Y1489750D01*
X1041000Y1497290D02*
Y1557541D01*
X1203500Y1496500D02*
X1210250Y1489750D01*
X1203500Y1496500D02*
Y1521800D01*
X1209000Y1588000D02*
X1217750Y1579250D01*
Y1536050D02*
Y1579250D01*
X1203500Y1521800D02*
X1217750Y1536050D01*
X1171000Y1588000D02*
X1203500D01*
X1222887Y1508000D02*
Y1518637D01*
X1203500Y1542575D02*
Y1563558D01*
X1188925Y1528000D02*
X1203500Y1542575D01*
X1171000Y1528000D02*
X1188925D01*
X1618457Y2145189D02*
X1646000Y2117645D01*
X1599000Y2151232D02*
X1605044Y2145189D01*
X1599000Y2151232D02*
Y2160897D01*
X1494697Y1884000D02*
X1521051Y1857645D01*
X1158000Y1884000D02*
X1494697D01*
X1441875Y1857645D02*
X1444000Y1859771D01*
X1438750Y1870250D02*
X1444000Y1865000D01*
X1162849Y1870250D02*
X1438750D01*
X1080000Y1787401D02*
X1162849Y1870250D01*
X1707508Y1880000D02*
X1745451Y1917943D01*
X1662054Y1880000D02*
X1707508D01*
X1648051Y1865997D02*
X1662054Y1880000D01*
X1648051Y1857645D02*
Y1865997D01*
X1703645Y1857645D02*
X1757000Y1911000D01*
X1673452Y1857645D02*
X1703645D01*
X1495000Y1856994D02*
X1495652Y1857645D01*
X1080000Y1615000D02*
Y1787401D01*
X1033000Y1568000D02*
X1080000Y1615000D01*
X1023000Y1568000D02*
X1033000D01*
X1090000Y1622600D02*
X1104600Y1608000D01*
X1060000Y1786000D02*
X1158000Y1884000D01*
X1060000Y1634540D02*
Y1786000D01*
X1033460Y1608000D02*
X1060000Y1634540D01*
X1070000Y1786650D02*
X1160810Y1877460D01*
X1070000Y1623000D02*
Y1786650D01*
X1035000Y1588000D02*
X1070000Y1623000D01*
X1035000Y1628000D02*
X1050000Y1643000D01*
X1023000Y1608000D02*
X1033460D01*
X933200Y1765000D02*
Y1794000D01*
Y1534800D02*
Y1765000D01*
X986000Y1508000D02*
X1023000D01*
X1597251Y2162645D02*
X1599000Y2160897D01*
X1160810Y1877460D02*
X1450437D01*
X1470251Y1857645D01*
X1444000Y1859771D02*
Y1865000D01*
X1441875Y1857645D02*
X1444852D01*
X1104600Y1608000D02*
X1171000D01*
X1041000Y1557541D02*
X1071459Y1588000D01*
X1167500D01*
X1023000Y1588000D02*
X1035000D01*
X1495652Y1857645D02*
Y1858521D01*
X1023000Y1628000D02*
X1035000D01*
X1169250Y1589750D02*
X1171000Y1588000D01*
X1775000Y1792000D02*
X1809000Y1826000D01*
Y1901000D01*
D44*
X780800Y1766700D02*
X781500Y1766000D01*
X932200D02*
X933200Y1765000D01*
X717878Y1766000D02*
X780800D01*
Y1766700D02*
Y1794000D01*
X704878Y1779000D02*
X717878Y1766000D01*
X781500D02*
X932200D01*
X1280700Y1764500D02*
Y1779001D01*
X1301699Y1800000D01*
X1324200D01*
X1649500Y1820401D02*
X1651000D01*
X1668000Y1818000D02*
Y1820401D01*
Y1815819D02*
Y1818000D01*
X1636012Y1790000D02*
X1650500D01*
X1636012Y1790000D02*
X1636012Y1790000D01*
X1374000Y1489750D02*
X1635750D01*
X1272600D02*
X1374000D01*
Y1513800D02*
X1374200Y1514000D01*
X1374000Y1489750D02*
Y1513800D01*
X1635750Y1489750D02*
X1646000Y1500000D01*
X1256400Y1489750D02*
X1272600D01*
X1456750Y1546942D02*
Y1591500D01*
X1455500Y1545692D02*
X1456750Y1546942D01*
X1455500Y1544692D02*
Y1545692D01*
X1646000Y1500000D02*
Y1525071D01*
X1622651Y1548420D02*
X1622652Y1857645D01*
X1622651Y1548420D02*
X1646000Y1525071D01*
X1673452Y1908445D02*
Y2162645D01*
X1622652Y1857645D02*
X1673452Y1908445D01*
X704600Y1794000D02*
X704878Y1793722D01*
Y1779000D02*
Y1793722D01*
D45*
X1649500Y1818000D02*
D03*
X1669500D02*
D03*
D46*
X1425800Y1800000D02*
D03*
X671031Y2061600D02*
D03*
X1272600Y1514000D02*
D03*
X1546000Y1509000D02*
D03*
X933200Y1794000D02*
D03*
X1673452Y2162645D02*
D03*
X1825000Y2094774D02*
D03*
D47*
X1400400Y1800000D02*
D03*
X1375000D02*
D03*
X1349600D02*
D03*
X1324200D02*
D03*
X671031Y1960000D02*
D03*
X798030D02*
D03*
X772630D02*
D03*
X747231D02*
D03*
X721831D02*
D03*
X696431D02*
D03*
Y2061600D02*
D03*
X721831D02*
D03*
X747231D02*
D03*
X772630D02*
D03*
X798030D02*
D03*
X1298000Y1514000D02*
D03*
X1323400D02*
D03*
X1348800D02*
D03*
X1374200D02*
D03*
X1399600D02*
D03*
X1571400Y1509000D02*
D03*
X1596800D02*
D03*
X1622200D02*
D03*
X679200Y1794000D02*
D03*
X704600D02*
D03*
X730000D02*
D03*
X755400D02*
D03*
X780800D02*
D03*
X806200D02*
D03*
X831600D02*
D03*
X857000D02*
D03*
X882400D02*
D03*
X907800D02*
D03*
X1292451Y1857645D02*
D03*
X1317852Y1857645D02*
D03*
X1343251Y1857645D02*
D03*
X1368651Y1857645D02*
D03*
X1394052D02*
D03*
X1419451Y1857645D02*
D03*
X1444852Y1857645D02*
D03*
X1470251Y1857645D02*
D03*
X1495652Y1857645D02*
D03*
X1521051D02*
D03*
X1546452D02*
D03*
X1571852D02*
D03*
X1597251D02*
D03*
X1622652D02*
D03*
X1648051Y1857645D02*
D03*
X1673452Y1857645D02*
D03*
X1648051Y2162645D02*
D03*
X1622652D02*
D03*
X1597251D02*
D03*
X1571852Y2162645D02*
D03*
X1546452Y2162645D02*
D03*
X1521051D02*
D03*
X1495652D02*
D03*
X1470251D02*
D03*
X1444852D02*
D03*
X1419451D02*
D03*
X1394052Y2162645D02*
D03*
X1368651Y2162645D02*
D03*
X1343251Y2162645D02*
D03*
X1317852Y2162645D02*
D03*
X1292451D02*
D03*
X1799600Y2094774D02*
D03*
X1732000Y1772000D02*
D03*
Y1797400D02*
D03*
Y1676400D02*
D03*
Y1701800D02*
D03*
D48*
X1809000Y1901000D02*
D03*
Y1684000D02*
D03*
D49*
Y1951000D02*
D03*
Y2001000D02*
D03*
Y1734000D02*
D03*
Y1784000D02*
D03*
D50*
X1732000Y1746600D02*
D03*
Y1651000D02*
D03*
D51*
X1520691Y1737554D02*
D03*
X691684Y1666055D02*
D03*
X1147000Y1829460D02*
D03*
X994000D02*
D03*
X990000Y1648000D02*
D03*
X1686360Y1790000D02*
D03*
X1637000Y1839000D02*
D03*
X1458250Y1632000D02*
D03*
X1028000Y1691000D02*
D03*
X1643000Y1729000D02*
D03*
X1588656Y1750804D02*
D03*
X1596800Y1717352D02*
D03*
X1594612Y2137664D02*
D03*
X935250Y1492000D02*
D03*
X1222887Y1508000D02*
D03*
X1203500Y1563558D02*
D03*
X1122790Y1869685D02*
D03*
X986000Y1508000D02*
D03*
M02*
