G04*
G04 #@! TF.GenerationSoftware,Altium Limited,Altium Designer,21.2.1 (34)*
G04*
G04 Layer_Color=32896*
%FSLAX44Y44*%
%MOMM*%
G71*
G04*
G04 #@! TF.SameCoordinates,603A0A18-1311-4174-A4CB-90F12E54E7A9*
G04*
G04*
G04 #@! TF.FilePolarity,Positive*
G04*
G01*
G75*
%ADD10C,0.2500*%
%ADD11C,0.2540*%
%ADD12C,0.2000*%
%ADD15C,0.3000*%
G36*
X693693Y1517307D02*
X691000D01*
Y1520000D01*
X693693D01*
Y1517307D01*
D02*
G37*
G36*
X1711089Y1890000D02*
X1677000D01*
Y1901017D01*
X1711089D01*
Y1890000D01*
D02*
G37*
G36*
X1669089Y1550000D02*
X1635000D01*
Y1561017D01*
X1669089D01*
Y1550000D01*
D02*
G37*
G36*
X782737Y1557867D02*
X807105D01*
Y1547627D01*
X782737D01*
Y1523000D01*
X772368D01*
Y1547627D01*
X748000D01*
Y1557867D01*
X772368D01*
Y1582235D01*
X782737D01*
Y1557867D01*
D02*
G37*
G36*
X792775Y1904886D02*
X813661D01*
Y1896109D01*
X792775D01*
Y1875000D01*
X783887D01*
Y1896109D01*
X763000D01*
Y1904886D01*
X783887D01*
Y1925773D01*
X792775D01*
Y1904886D01*
D02*
G37*
G36*
X1802604Y1587848D02*
X1823250Y1552111D01*
X1802604D01*
X1792327Y1569979D01*
X1781958Y1552111D01*
X1761312D01*
X1781958Y1587848D01*
X1771681Y1605809D01*
X1750943Y1569979D01*
X1730297Y1605809D01*
X1720020Y1587848D01*
X1709651Y1605809D01*
X1720020Y1623678D01*
X1740666D01*
X1750943Y1605809D01*
X1761312Y1623678D01*
X1781958D01*
X1792327Y1605809D01*
X1802604Y1623678D01*
X1823250D01*
X1802604Y1587848D01*
D02*
G37*
G36*
X1754368Y1524058D02*
X1751591D01*
Y1529891D01*
X1744554Y1529891D01*
Y1524058D01*
X1741870D01*
Y1538316D01*
X1744554D01*
Y1532298D01*
X1751591Y1532298D01*
Y1538316D01*
X1754368D01*
Y1524058D01*
D02*
G37*
G36*
X1736963Y1524058D02*
X1734278D01*
Y1533779D01*
X1726686Y1524058D01*
X1725575D01*
X1724927Y1525493D01*
Y1538409D01*
X1727704D01*
Y1529521D01*
X1734741Y1538409D01*
X1736963D01*
Y1524058D01*
D02*
G37*
G36*
X1761497Y1538594D02*
X1762701Y1538316D01*
X1763627Y1537946D01*
X1764460Y1537483D01*
X1765108Y1537020D01*
X1765571Y1536649D01*
X1765849Y1536372D01*
X1765941Y1536279D01*
X1766589Y1535353D01*
X1766960Y1534520D01*
X1767330Y1533594D01*
X1767515Y1532854D01*
X1767608Y1532113D01*
X1767700Y1531557D01*
Y1531187D01*
Y1531095D01*
X1767608Y1530076D01*
X1767422Y1529150D01*
X1767145Y1528317D01*
X1766774Y1527576D01*
X1766497Y1526928D01*
X1766219Y1526465D01*
X1766034Y1526188D01*
X1765941Y1526095D01*
X1765200Y1525354D01*
X1764275Y1524799D01*
X1763256Y1524336D01*
X1762330Y1524058D01*
X1761497Y1523873D01*
X1760756Y1523781D01*
X1760016D01*
X1758905Y1523873D01*
X1757979Y1524151D01*
X1757609Y1524243D01*
X1757331Y1524336D01*
X1757238Y1524429D01*
X1757146D01*
X1756220Y1524892D01*
X1755387Y1525354D01*
X1754924Y1525725D01*
X1754738Y1525910D01*
X1756498Y1527762D01*
X1757146Y1527299D01*
X1757701Y1527021D01*
X1758071Y1526836D01*
X1758257Y1526743D01*
X1758905Y1526465D01*
X1759553Y1526373D01*
X1759923Y1526280D01*
X1760108D01*
X1761034Y1526373D01*
X1761867Y1526558D01*
X1762516Y1526743D01*
X1763071Y1527113D01*
X1763534Y1527391D01*
X1763812Y1527576D01*
X1763904Y1527762D01*
X1763997Y1527854D01*
X1764367Y1528410D01*
X1764645Y1528965D01*
X1764923Y1530076D01*
X1765015Y1530446D01*
X1765108Y1530817D01*
Y1531002D01*
Y1531095D01*
X1765015Y1531743D01*
X1764923Y1532391D01*
X1764552Y1533409D01*
X1764367Y1533872D01*
X1764182Y1534150D01*
X1763997Y1534335D01*
Y1534427D01*
X1763441Y1534983D01*
X1762886Y1535353D01*
X1762238Y1535724D01*
X1761590Y1535909D01*
X1761034Y1536001D01*
X1760571Y1536094D01*
X1760108D01*
X1759460Y1536001D01*
X1758905Y1535909D01*
X1758534Y1535816D01*
X1758349Y1535724D01*
X1757701Y1535446D01*
X1757146Y1535076D01*
X1756775Y1534798D01*
X1756683Y1534705D01*
X1754831Y1536464D01*
X1755664Y1537112D01*
X1756498Y1537668D01*
X1757053Y1537946D01*
X1757238Y1538038D01*
X1757331D01*
X1758349Y1538409D01*
X1759182Y1538594D01*
X1759553Y1538686D01*
X1760108D01*
X1761497Y1538594D01*
D02*
G37*
G36*
X1823250Y1524058D02*
X1809548D01*
X1805844Y1529521D01*
X1802141Y1524058D01*
X1799086D01*
Y1524151D01*
X1804178Y1531280D01*
X1799271Y1538223D01*
Y1538409D01*
X1802234D01*
X1805844Y1533039D01*
X1809455Y1538409D01*
X1812325D01*
Y1538223D01*
X1807603Y1531280D01*
X1812510Y1524151D01*
Y1526836D01*
X1820565D01*
Y1529984D01*
X1812881D01*
Y1532483D01*
X1820565D01*
Y1535816D01*
X1812510D01*
Y1538409D01*
X1823250D01*
Y1524058D01*
D02*
G37*
G36*
X1781217Y1525098D02*
Y1538316D01*
X1784272D01*
X1788809Y1532206D01*
X1793346Y1538316D01*
X1796401D01*
Y1524058D01*
X1793716D01*
Y1534427D01*
X1789087Y1528317D01*
X1788624D01*
X1783902Y1534427D01*
Y1524058D01*
X1781680D01*
X1781217Y1525098D01*
Y1524058D01*
X1778810D01*
X1777514Y1526836D01*
X1770015D01*
X1768811Y1524058D01*
X1765756D01*
X1772237Y1538409D01*
X1775292D01*
X1781217Y1525098D01*
D02*
G37*
G36*
X1740851Y1524058D02*
X1738166D01*
Y1538409D01*
X1740851D01*
Y1524058D01*
D02*
G37*
G36*
X1724927Y1525493D02*
Y1524058D01*
X1722612D01*
X1721316Y1526836D01*
X1713817D01*
X1712706Y1524058D01*
X1709651D01*
X1716039Y1538409D01*
X1719094D01*
X1724927Y1525493D01*
D02*
G37*
G36*
X700693Y1517307D02*
X698000D01*
Y1520000D01*
X700693D01*
Y1517307D01*
D02*
G37*
%LPC*%
G36*
X1773811Y1535353D02*
X1771033Y1529335D01*
X1776403D01*
X1773811Y1535353D01*
D02*
G37*
G36*
X1717520Y1535353D02*
X1714928Y1529335D01*
X1720298D01*
X1717520Y1535353D01*
D02*
G37*
%LPD*%
D10*
X742128Y1649750D02*
G03*
X742128Y1649750I-1250J0D01*
G01*
D11*
X831000Y1553000D02*
X856000D01*
X831000D02*
Y1763000D01*
X1601000D01*
Y1553000D02*
Y1763000D01*
X831000Y1553000D02*
X1601000D01*
X1834843Y1512235D02*
X1845000D01*
Y1497000D01*
X1834843D01*
X1845000Y1504617D02*
X1839922D01*
X1829765Y1512235D02*
Y1497000D01*
X1819608D01*
X1814530Y1512235D02*
X1809451D01*
X1811991D01*
Y1497000D01*
X1814530D01*
X1809451D01*
X1799295D02*
X1794216D01*
X1791677Y1499539D01*
Y1504617D01*
X1794216Y1507157D01*
X1799295D01*
X1801834Y1504617D01*
Y1499539D01*
X1799295Y1497000D01*
X1786599Y1512235D02*
X1776442D01*
X1781521D01*
Y1497000D01*
X1756129Y1507157D02*
X1751050Y1497000D01*
X1745972Y1507157D01*
X1730737Y1497000D02*
X1740894D01*
X1730737Y1507157D01*
Y1509696D01*
X1733276Y1512235D01*
X1738354D01*
X1740894Y1509696D01*
X1725659Y1497000D02*
Y1499539D01*
X1723119D01*
Y1497000D01*
X1725659D01*
X1705345D02*
Y1512235D01*
X1712963Y1504617D01*
X1702806D01*
X1697728Y1497000D02*
Y1499539D01*
X1695188D01*
Y1497000D01*
X1697728D01*
X1674875Y1512235D02*
X1679953Y1509696D01*
X1685032Y1504617D01*
Y1499539D01*
X1682493Y1497000D01*
X1677414D01*
X1674875Y1499539D01*
Y1502078D01*
X1677414Y1504617D01*
X1685032D01*
X1709657Y1835468D02*
X1712196Y1838008D01*
X1717274D01*
X1719813Y1835468D01*
Y1832929D01*
X1717274Y1830390D01*
X1712196D01*
X1709657Y1827851D01*
Y1825312D01*
X1712196Y1822773D01*
X1717274D01*
X1719813Y1825312D01*
X1704578Y1838008D02*
Y1822773D01*
X1696961D01*
X1694422Y1825312D01*
Y1827851D01*
X1696961Y1830390D01*
X1704578D01*
X1696961D01*
X1694422Y1832929D01*
Y1835468D01*
X1696961Y1838008D01*
X1704578D01*
X1689343Y1835468D02*
X1686804Y1838008D01*
X1681726D01*
X1679187Y1835468D01*
Y1832929D01*
X1681726Y1830390D01*
X1679187Y1827851D01*
Y1825312D01*
X1681726Y1822773D01*
X1686804D01*
X1689343Y1825312D01*
Y1827851D01*
X1686804Y1830390D01*
X1689343Y1832929D01*
Y1835468D01*
X1686804Y1830390D02*
X1681726D01*
X1705157Y1773826D02*
X1707696Y1776366D01*
X1712774D01*
X1715313Y1773826D01*
Y1771287D01*
X1712774Y1768748D01*
X1707696D01*
X1705157Y1766209D01*
Y1763670D01*
X1707696Y1761131D01*
X1712774D01*
X1715313Y1763670D01*
X1700078Y1776366D02*
Y1761131D01*
X1692461D01*
X1689922Y1763670D01*
Y1766209D01*
X1692461Y1768748D01*
X1700078D01*
X1692461D01*
X1689922Y1771287D01*
Y1773826D01*
X1692461Y1776366D01*
X1700078D01*
X1684843D02*
X1674686D01*
Y1773826D01*
X1684843Y1763670D01*
Y1761131D01*
X1467157Y1755078D02*
X1469696Y1757617D01*
X1474774D01*
X1477313Y1755078D01*
Y1752539D01*
X1474774Y1750000D01*
X1469696D01*
X1467157Y1747461D01*
Y1744922D01*
X1469696Y1742383D01*
X1474774D01*
X1477313Y1744922D01*
X1462078Y1757617D02*
Y1742383D01*
X1454461D01*
X1451922Y1744922D01*
Y1747461D01*
X1454461Y1750000D01*
X1462078D01*
X1454461D01*
X1451922Y1752539D01*
Y1755078D01*
X1454461Y1757617D01*
X1462078D01*
X1436687Y1742383D02*
X1446843D01*
X1436687Y1752539D01*
Y1755078D01*
X1439226Y1757617D01*
X1444304D01*
X1446843Y1755078D01*
X1529337Y1818382D02*
X1531877Y1820921D01*
X1536955D01*
X1539494Y1818382D01*
Y1815843D01*
X1536955Y1813304D01*
X1531877D01*
X1529337Y1810764D01*
Y1808225D01*
X1531877Y1805686D01*
X1536955D01*
X1539494Y1808225D01*
X1524259Y1820921D02*
Y1805686D01*
X1516641D01*
X1514102Y1808225D01*
Y1810764D01*
X1516641Y1813304D01*
X1524259D01*
X1516641D01*
X1514102Y1815843D01*
Y1818382D01*
X1516641Y1820921D01*
X1524259D01*
X1509024Y1805686D02*
X1503945D01*
X1506485D01*
Y1820921D01*
X1509024Y1818382D01*
X722779Y1691083D02*
Y1701240D01*
X725318Y1703779D01*
X730397D01*
X732936Y1701240D01*
Y1691083D01*
X730397Y1688544D01*
X725318D01*
X727858Y1693622D02*
X722779Y1688544D01*
X725318D02*
X722779Y1691083D01*
X707544Y1688544D02*
X717701D01*
X707544Y1698701D01*
Y1701240D01*
X710083Y1703779D01*
X715162D01*
X717701Y1701240D01*
X821803Y2083442D02*
Y2098677D01*
X816724Y2093599D01*
X811646Y2098677D01*
Y2083442D01*
X798950D02*
Y2098677D01*
X806568Y2091060D01*
X796411D01*
X1913011Y1480000D02*
G03*
X1937978Y1504966I0J24966D01*
G01*
X1938040Y2158600D02*
G03*
X1906640Y2190000I-31400J0D01*
G01*
X1937978Y1572309D02*
G03*
X1907515Y1602771I-30463J0D01*
G01*
X1884624Y2114464D02*
G03*
X1858160Y2088000I0J-26464D01*
G01*
X1858166Y1615620D02*
G03*
X1870866Y1602920I12700J0D01*
G01*
X1906640Y2114464D02*
G03*
X1938040Y2145864I0J31400D01*
G01*
X650000Y1506454D02*
G03*
X676454Y1480000I26455J0D01*
G01*
X675392Y2190000D02*
G03*
X650000Y2164608I0J-25392D01*
G01*
X834452Y2124645D02*
X1619451Y2124645D01*
X834452Y1894645D02*
X1619451Y1894645D01*
Y2124645D01*
X834452Y1894645D02*
Y2124645D01*
X676454Y1480000D02*
X1913011D01*
X1938040Y2145864D02*
Y2158600D01*
X675392Y2190000D02*
X1906640D01*
X1903863Y1602920D02*
X1907515D01*
X1884624Y2114464D02*
X1906640D01*
X1858000Y2088000D02*
X1858000Y1615620D01*
X1937978Y1504966D02*
Y1572309D01*
X1870866Y1602920D02*
X1903863D01*
X650000Y1506454D02*
X650000Y2164608D01*
D12*
X658331Y1972700D02*
X810731D01*
X658331Y1947300D02*
X810731D01*
X658331D02*
Y1972700D01*
X810731Y1947300D02*
Y1972700D01*
Y2048900D02*
Y2074300D01*
X658331Y2048900D02*
Y2074300D01*
Y2048900D02*
X810731D01*
X658331Y2074300D02*
X810731D01*
X707878Y1668000D02*
X715878D01*
X707878Y1659000D02*
Y1668000D01*
X729878D02*
X737878D01*
Y1659000D02*
Y1668000D01*
D15*
X1917878Y2147934D02*
G03*
X1917878Y2147934I-15000J0D01*
G01*
Y1567934D02*
G03*
X1917878Y1567934I-15000J0D01*
G01*
X702878D02*
G03*
X702878Y1567934I-15000J0D01*
G01*
Y2147934D02*
G03*
X702878Y2147934I-15000J0D01*
G01*
M02*
