G04*
G04 #@! TF.GenerationSoftware,Altium Limited,Altium Designer,21.2.1 (34)*
G04*
G04 Layer_Color=16711935*
%FSLAX44Y44*%
%MOMM*%
G71*
G04*
G04 #@! TF.SameCoordinates,603A0A18-1311-4174-A4CB-90F12E54E7A9*
G04*
G04*
G04 #@! TF.FilePolarity,Negative*
G04*
G01*
G75*
%ADD11C,0.2540*%
%ADD15C,0.3000*%
%ADD16C,1.0000*%
%ADD17R,1.2032X1.2032*%
%ADD26R,0.5000X2.0000*%
%ADD27R,1.7032X1.7032*%
%ADD28C,1.7032*%
%ADD29R,2.0032X2.0032*%
%ADD30C,2.0032*%
%ADD31R,1.7032X1.7032*%
%ADD32C,1.2032*%
%ADD56R,2.0000X0.5000*%
%ADD58R,1.2032X1.2032*%
%ADD59R,7.2032X9.2032*%
%ADD60R,0.8032X1.3532*%
D11*
X1913011Y1480000D02*
G03*
X1937978Y1504966I0J24966D01*
G01*
X1938040Y2158600D02*
G03*
X1906640Y2190000I-31400J0D01*
G01*
X1937978Y1572309D02*
G03*
X1907515Y1602771I-30463J0D01*
G01*
X1884624Y2114464D02*
G03*
X1858160Y2088000I0J-26464D01*
G01*
X1858166Y1615620D02*
G03*
X1870866Y1602920I12700J0D01*
G01*
X1906640Y2114464D02*
G03*
X1938040Y2145864I0J31400D01*
G01*
X650000Y1506454D02*
G03*
X676454Y1480000I26455J0D01*
G01*
X675392Y2190000D02*
G03*
X650000Y2164608I0J-25392D01*
G01*
X834452Y2124645D02*
X1619451Y2124645D01*
X834452Y1894645D02*
X1619451Y1894645D01*
Y2124645D01*
X834452Y1894645D02*
Y2124645D01*
X676454Y1480000D02*
X1913011D01*
X1938040Y2145864D02*
Y2158600D01*
X675392Y2190000D02*
X1906640D01*
X1903863Y1602920D02*
X1907515D01*
X1884624Y2114464D02*
X1906640D01*
X1858000Y2088000D02*
X1858000Y1615620D01*
X1937978Y1504966D02*
Y1572309D01*
X1870866Y1602920D02*
X1903863D01*
X650000Y1506454D02*
X650000Y2164608D01*
D15*
X1917878Y2147934D02*
G03*
X1917878Y2147934I-15000J0D01*
G01*
Y1567934D02*
G03*
X1917878Y1567934I-15000J0D01*
G01*
X702878D02*
G03*
X702878Y1567934I-15000J0D01*
G01*
Y2147934D02*
G03*
X702878Y2147934I-15000J0D01*
G01*
D16*
X1480000Y1771101D02*
G03*
X1485903Y1775019I1000J4899D01*
G01*
X1476097D02*
G03*
X1480000Y1771101I4903J981D01*
G01*
X1485903Y1789981D02*
G03*
X1476097Y1789981I-4903J-981D01*
G01*
X1666981Y1813207D02*
G03*
X1666981Y1823013I-981J4903D01*
G01*
X1652019D02*
G03*
X1652019Y1813207I981J-4903D01*
G01*
X1658981Y1779097D02*
G03*
X1658981Y1788903I-981J4903D01*
G01*
X1644019D02*
G03*
X1644019Y1779097I981J-4903D01*
G01*
X1517965Y1792857D02*
G03*
X1517965Y1783051I981J-4903D01*
G01*
X1532927D02*
G03*
X1532927Y1792857I-981J4903D01*
G01*
D17*
X1668000Y1818110D02*
D03*
X1651000D02*
D03*
X1660000Y1784000D02*
D03*
X1643000D02*
D03*
X1516946Y1787954D02*
D03*
X1533946D02*
D03*
D26*
X1664500Y1818110D02*
D03*
X1654501Y1818110D02*
D03*
X1656500Y1784000D02*
D03*
X1646501Y1784000D02*
D03*
X1520446Y1787954D02*
D03*
X1530446Y1787954D02*
D03*
D27*
X1425800Y1800000D02*
D03*
X671031Y2061600D02*
D03*
X1272600Y1514000D02*
D03*
X1546000Y1509000D02*
D03*
X933200Y1794000D02*
D03*
X1673452Y2162645D02*
D03*
X1825000Y2094774D02*
D03*
D28*
X1400400Y1800000D02*
D03*
X1375000D02*
D03*
X1349600D02*
D03*
X1324200D02*
D03*
X671031Y1960000D02*
D03*
X798030D02*
D03*
X772630D02*
D03*
X747231D02*
D03*
X721831D02*
D03*
X696431D02*
D03*
Y2061600D02*
D03*
X721831D02*
D03*
X747231D02*
D03*
X772630D02*
D03*
X798030D02*
D03*
X1298000Y1514000D02*
D03*
X1323400D02*
D03*
X1348800D02*
D03*
X1374200D02*
D03*
X1399600D02*
D03*
X1571400Y1509000D02*
D03*
X1596800D02*
D03*
X1622200D02*
D03*
X679200Y1794000D02*
D03*
X704600D02*
D03*
X730000D02*
D03*
X755400D02*
D03*
X780800D02*
D03*
X806200D02*
D03*
X831600D02*
D03*
X857000D02*
D03*
X882400D02*
D03*
X907800D02*
D03*
X1292451Y1857645D02*
D03*
X1317852Y1857645D02*
D03*
X1343251Y1857645D02*
D03*
X1368651Y1857645D02*
D03*
X1394052D02*
D03*
X1419451Y1857645D02*
D03*
X1444852Y1857645D02*
D03*
X1470251Y1857645D02*
D03*
X1495652Y1857645D02*
D03*
X1521051D02*
D03*
X1546452D02*
D03*
X1571852D02*
D03*
X1597251D02*
D03*
X1622652D02*
D03*
X1648051Y1857645D02*
D03*
X1673452Y1857645D02*
D03*
X1648051Y2162645D02*
D03*
X1622652D02*
D03*
X1597251D02*
D03*
X1571852Y2162645D02*
D03*
X1546452Y2162645D02*
D03*
X1521051D02*
D03*
X1495652D02*
D03*
X1470251D02*
D03*
X1444852D02*
D03*
X1419451D02*
D03*
X1394052Y2162645D02*
D03*
X1368651Y2162645D02*
D03*
X1343251Y2162645D02*
D03*
X1317852Y2162645D02*
D03*
X1292451D02*
D03*
X1799600Y2094774D02*
D03*
X1732000Y1772000D02*
D03*
Y1797400D02*
D03*
Y1676400D02*
D03*
Y1701800D02*
D03*
D29*
X1809000Y1901000D02*
D03*
Y1684000D02*
D03*
D30*
Y1951000D02*
D03*
Y2001000D02*
D03*
Y1734000D02*
D03*
Y1784000D02*
D03*
D31*
X1732000Y1746600D02*
D03*
Y1651000D02*
D03*
D32*
X1520691Y1737554D02*
D03*
X691684Y1666055D02*
D03*
X1147000Y1829460D02*
D03*
X994000D02*
D03*
X990000Y1648000D02*
D03*
X1686360Y1790000D02*
D03*
X1637000Y1839000D02*
D03*
X1458250Y1632000D02*
D03*
X1028000Y1691000D02*
D03*
X1643000Y1729000D02*
D03*
X1588656Y1750804D02*
D03*
X1596800Y1717352D02*
D03*
X1594612Y2137664D02*
D03*
X935250Y1492000D02*
D03*
X1222887Y1508000D02*
D03*
X1203500Y1563558D02*
D03*
X1122790Y1869685D02*
D03*
X986000Y1508000D02*
D03*
D56*
X1481000Y1777500D02*
D03*
X1481001Y1787500D02*
D03*
D58*
X1481000Y1774000D02*
D03*
Y1791000D02*
D03*
D59*
X792000Y1658000D02*
D03*
X1640000D02*
D03*
D60*
X722878Y1672250D02*
D03*
X713378Y1649750D02*
D03*
X732378D02*
D03*
M02*
