G04*
G04 #@! TF.GenerationSoftware,Altium Limited,Altium Designer,21.2.1 (34)*
G04*
G04 Layer_Color=16711935*
%FSLAX44Y44*%
%MOMM*%
G71*
G04*
G04 #@! TF.SameCoordinates,603A0A18-1311-4174-A4CB-90F12E54E7A9*
G04*
G04*
G04 #@! TF.FilePolarity,Positive*
G04*
G01*
G75*
%ADD11C,0.2540*%
%ADD15C,0.3000*%
D11*
X1913011Y1480000D02*
G03*
X1937978Y1504966I0J24966D01*
G01*
X1938040Y2158600D02*
G03*
X1906640Y2190000I-31400J0D01*
G01*
X1937978Y1572309D02*
G03*
X1907515Y1602771I-30463J0D01*
G01*
X1884624Y2114464D02*
G03*
X1858160Y2088000I0J-26464D01*
G01*
X1858166Y1615620D02*
G03*
X1870866Y1602920I12700J0D01*
G01*
X1906640Y2114464D02*
G03*
X1938040Y2145864I0J31400D01*
G01*
X650000Y1506454D02*
G03*
X676454Y1480000I26455J0D01*
G01*
X675392Y2190000D02*
G03*
X650000Y2164608I0J-25392D01*
G01*
X834452Y2124645D02*
X1619451Y2124645D01*
X834452Y1894645D02*
X1619451Y1894645D01*
Y2124645D01*
X834452Y1894645D02*
Y2124645D01*
X676454Y1480000D02*
X1913011D01*
X1938040Y2145864D02*
Y2158600D01*
X675392Y2190000D02*
X1906640D01*
X1903863Y1602920D02*
X1907515D01*
X1884624Y2114464D02*
X1906640D01*
X1858000Y2088000D02*
X1858000Y1615620D01*
X1937978Y1504966D02*
Y1572309D01*
X1870866Y1602920D02*
X1903863D01*
X650000Y1506454D02*
X650000Y2164608D01*
X1913011Y1480000D02*
G03*
X1937978Y1504966I0J24966D01*
G01*
X1938040Y2158600D02*
G03*
X1906640Y2190000I-31400J0D01*
G01*
X1937978Y1572309D02*
G03*
X1907515Y1602771I-30463J0D01*
G01*
X1884624Y2114464D02*
G03*
X1858160Y2088000I0J-26464D01*
G01*
X1858166Y1615620D02*
G03*
X1870866Y1602920I12700J0D01*
G01*
X1906640Y2114464D02*
G03*
X1938040Y2145864I0J31400D01*
G01*
X650000Y1506454D02*
G03*
X676454Y1480000I26455J0D01*
G01*
X675392Y2190000D02*
G03*
X650000Y2164608I0J-25392D01*
G01*
X834452Y2124645D02*
X1619451Y2124645D01*
X834452Y1894645D02*
X1619451Y1894645D01*
Y2124645D01*
X834452Y1894645D02*
Y2124645D01*
X676454Y1480000D02*
X1913011D01*
X1938040Y2145864D02*
Y2158600D01*
X675392Y2190000D02*
X1906640D01*
X1903863Y1602920D02*
X1907515D01*
X1884624Y2114464D02*
X1906640D01*
X1858000Y2088000D02*
X1858000Y1615620D01*
X1937978Y1504966D02*
Y1572309D01*
X1870866Y1602920D02*
X1903863D01*
X650000Y1506454D02*
X650000Y2164608D01*
D15*
X1917878Y2147934D02*
G03*
X1917878Y2147934I-15000J0D01*
G01*
Y1567934D02*
G03*
X1917878Y1567934I-15000J0D01*
G01*
X702878D02*
G03*
X702878Y1567934I-15000J0D01*
G01*
Y2147934D02*
G03*
X702878Y2147934I-15000J0D01*
G01*
X1917878D02*
G03*
X1917878Y2147934I-15000J0D01*
G01*
Y1567934D02*
G03*
X1917878Y1567934I-15000J0D01*
G01*
X702878D02*
G03*
X702878Y1567934I-15000J0D01*
G01*
Y2147934D02*
G03*
X702878Y2147934I-15000J0D01*
G01*
M02*
