M48
;Layer_Color=9474304
;FILE_FORMAT=4:4
METRIC,LZ
;TYPE=PLATED
T1F00S00C0.5000
T2F00S00C0.6000
T3F00S00C0.9000
T4F00S00C1.2000
%
T01
X01222887Y01508
X012035Y01563558
X00986Y01508
X0093525Y01492
X00691684Y01666055
X0099Y01648
X00994Y0182946
X01147
X0112279Y01869685
X01520691Y01737554
X015968Y01717352
X01637Y01839
X01594612Y02137664
T02
X01028Y01691
X0145825Y01632
X01588656Y01750804
X01643Y01729
X0168636Y0179
T03
X015968Y01509
X016222
X015714
X01546
X013996Y01514
X013742
X013488
X013234
X01298
X012726
X007808Y01794
X007554
X0073
X007046
X006792
X00671031Y0196
X00696431
X00721831
X00747231
X0077263
X0079803
X008062Y01794
X008316
X00857
X008824
X009078
X009332
X013242Y018
X013496
X01375
X014004
X014258
X01419451Y01857645
X01394052Y01857645
X01368651
X01343251Y01857645
X01317852Y01857645
X01292451Y01857645
X01444852Y01857645
X01470251Y01857645
X01495652Y01857645
X01521051
X01546452
X01571852
X01597251
X01622652
X01648051Y01857645
X01673452Y01857645
X01732Y017974
Y01772
Y017466
Y017018
Y016764
Y01651
X017996Y02094774
X01825
X01673452Y02162645
X01648051
X01622652
X01597251
X01571852Y02162645
X01546452Y02162645
X01521051
X01495652
X01470251
X01444852
X01419451
X01394052Y02162645
X01368651Y02162645
X01343251Y02162645
X01317852Y02162645
X01292451
X0079803Y020616
X0077263
X00747231
X00721831
X00696431
X00671031
T04
X01809Y01684
Y01734
Y01784
Y01901
Y01951
Y02001
M30
